<mxfile host="app.diagrams.net" modified="2023-11-19T11:22:13.643Z" agent="Mozilla/5.0 (Windows NT 10.0; Win64; x64) AppleWebKit/537.36 (KHTML, like Gecko) Chrome/119.0.0.0 Safari/537.36" etag="D5_5vog-Fzs8JaeA5PE6" version="22.1.3" type="github">
  <diagram name="Page-1" id="U3fu2ffD_hqvJIBoZ9ib">
    <mxGraphModel dx="1430" dy="757" grid="1" gridSize="10" guides="1" tooltips="1" connect="1" arrows="1" fold="1" page="1" pageScale="1" pageWidth="850" pageHeight="1100" math="0" shadow="0">
      <root>
        <mxCell id="0" />
        <mxCell id="1" parent="0" />
        <mxCell id="UTNTet_A8MFOcBiT-mlA-1" value="" style="shadow=0;dashed=0;html=1;labelPosition=center;verticalLabelPosition=bottom;verticalAlign=top;align=center;outlineConnect=0;shape=mxgraph.veeam.3d.switch;" vertex="1" parent="1">
          <mxGeometry x="160" y="520" width="100" height="40" as="geometry" />
        </mxCell>
        <mxCell id="UTNTet_A8MFOcBiT-mlA-2" value="" style="shadow=0;dashed=0;html=1;labelPosition=center;verticalLabelPosition=bottom;verticalAlign=top;align=center;outlineConnect=0;shape=mxgraph.veeam.3d.switch;" vertex="1" parent="1">
          <mxGeometry x="320" y="520" width="100" height="40" as="geometry" />
        </mxCell>
        <mxCell id="UTNTet_A8MFOcBiT-mlA-3" value="" style="shadow=0;dashed=0;html=1;labelPosition=center;verticalLabelPosition=bottom;verticalAlign=top;align=center;outlineConnect=0;shape=mxgraph.veeam.3d.switch;" vertex="1" parent="1">
          <mxGeometry x="160" y="640" width="100" height="40" as="geometry" />
        </mxCell>
        <mxCell id="UTNTet_A8MFOcBiT-mlA-4" value="" style="shadow=0;dashed=0;html=1;labelPosition=center;verticalLabelPosition=bottom;verticalAlign=top;align=center;outlineConnect=0;shape=mxgraph.veeam.3d.switch;" vertex="1" parent="1">
          <mxGeometry x="320" y="640" width="100" height="40" as="geometry" />
        </mxCell>
        <mxCell id="UTNTet_A8MFOcBiT-mlA-8" style="edgeStyle=orthogonalEdgeStyle;rounded=0;orthogonalLoop=1;jettySize=auto;html=1;strokeWidth=2;endArrow=none;endFill=0;" edge="1" parent="1" source="UTNTet_A8MFOcBiT-mlA-5" target="UTNTet_A8MFOcBiT-mlA-3">
          <mxGeometry relative="1" as="geometry" />
        </mxCell>
        <mxCell id="UTNTet_A8MFOcBiT-mlA-5" value="&lt;b&gt;M1&lt;/b&gt;" style="ellipse;whiteSpace=wrap;html=1;aspect=fixed;" vertex="1" parent="1">
          <mxGeometry x="185" y="740" width="50" height="50" as="geometry" />
        </mxCell>
        <mxCell id="UTNTet_A8MFOcBiT-mlA-7" value="&lt;b&gt;M2&lt;/b&gt;" style="ellipse;whiteSpace=wrap;html=1;aspect=fixed;" vertex="1" parent="1">
          <mxGeometry x="345" y="740" width="50" height="50" as="geometry" />
        </mxCell>
      </root>
    </mxGraphModel>
  </diagram>
</mxfile>
